<svg width="22" height="23" viewBox="0 0 22 23" fill="none" xmlns="http://www.w3.org/2000/svg">
<path fill-rule="evenodd" clip-rule="evenodd" d="M11 0.269531C4.95 0.269531 0 5.21953 0 11.2695C0 17.3195 4.95 22.2695 11 22.2695C17.05 22.2695 22 17.3195 22 11.2695C22 5.21953 17.05 0.269531 11 0.269531ZM12.1 15.0508C11.2063 15.0508 10.3813 14.5695 10.1062 14.0883C10.1062 14.0883 9.625 15.8758 9.55625 16.2883C9.2125 17.5258 8.18125 18.7633 8.1125 18.9008C8.04375 18.9695 7.90625 18.9695 7.90625 18.832C7.90625 18.6945 7.63125 17.1133 7.90625 15.807L8.9375 11.4758C8.9375 11.4758 8.6625 10.9945 8.6625 10.2383C8.6625 9.06953 9.35 8.17578 10.2437 8.17578C11 8.17578 11.3438 8.72578 11.3438 9.34453C11.3438 10.1008 10.8625 11.132 10.6562 12.1633C10.45 12.9883 11.0688 13.6758 11.9625 13.6758C13.475 13.6758 14.575 11.7508 14.575 9.48203C14.575 7.76328 13.3375 6.45703 11.2063 6.45703C8.73125 6.45703 7.21875 8.24453 7.21875 10.2383C7.21875 10.9258 7.425 11.407 7.76875 11.8195C7.90625 12.0258 7.90625 12.0945 7.90625 12.232L7.5625 12.8508C7.49375 13.057 7.35625 13.1258 7.15 13.057C6.05 12.5758 5.5 11.407 5.5 10.032C5.5 7.76328 7.425 5.08203 11.3438 5.08203C14.4375 5.08203 16.5 7.28203 16.5 9.61953C16.5 12.7133 14.7125 15.0508 12.1 15.0508Z" fill="#7C7C7D"/>
</svg>
