<svg width="22" height="23" viewBox="0 0 22 23" fill="none" xmlns="http://www.w3.org/2000/svg">
<path fill-rule="evenodd" clip-rule="evenodd" d="M11 0.269531C4.95 0.269531 0 5.21953 0 11.2695C0 17.3195 4.95 22.2695 11 22.2695C17.05 22.2695 22 17.3195 22 11.2695C22 5.21953 17.05 0.269531 11 0.269531ZM17.1875 15.0508C17.1875 16.357 16.0875 17.457 14.7812 17.457H7.21875C5.9125 17.457 4.8125 16.357 4.8125 15.0508V7.48828C4.8125 6.18203 5.9125 5.08203 7.21875 5.08203H14.7812C16.0875 5.08203 17.1875 6.18203 17.1875 7.48828V15.0508ZM15.5375 6.45703H15.8125V8.51953H13.75V6.45703H15.5375ZM13.0625 11.2695C13.0625 12.3695 12.1687 13.332 11 13.332C9.83125 13.332 8.9375 12.4383 8.9375 11.2695C8.9375 10.7883 9.28125 9.20703 11 9.20703C12.7188 9.20703 13.0625 10.7883 13.0625 11.2695ZM15.7437 9.89453H14.0938C14.2312 10.307 14.3687 10.857 14.3687 11.2695C14.3687 13.1258 12.8562 14.6383 11 14.6383C9.14375 14.6383 7.63125 13.1258 7.63125 11.2695C7.63125 10.7883 7.7 10.307 7.90625 9.89453H6.11875V14.9133C6.11875 15.6008 6.66875 16.082 7.2875 16.082H14.575C15.2625 16.082 15.7437 15.532 15.7437 14.9133V9.89453Z" fill="#7C7C7D"/>
</svg>
