<svg width="22" height="23" viewBox="0 0 22 23" fill="none" xmlns="http://www.w3.org/2000/svg">
<path fill-rule="evenodd" clip-rule="evenodd" d="M11 0.269531C4.95 0.269531 0 5.21953 0 11.2695C0 17.3195 4.95 22.2695 11 22.2695C17.05 22.2695 22 17.3195 22 11.2695C22 5.21953 17.05 0.269531 11 0.269531ZM15.8583 8.88624V9.16124C15.8583 12.3696 13.475 16.0362 8.98335 16.0362C7.60835 16.0362 6.32502 15.6696 5.31669 14.9362C6.60002 15.1196 7.88335 14.7529 8.89168 13.9279C7.79168 13.9279 6.96668 13.1946 6.60002 12.2779C6.96668 12.3696 7.33335 12.3696 7.70002 12.2779C6.60002 12.0946 5.77502 11.0862 5.77502 9.89457C6.14169 10.0779 6.50835 10.1696 6.87502 10.1696C6.23335 9.71124 5.77502 8.9779 5.77502 8.1529C5.77502 7.69457 5.86668 7.3279 6.14169 6.96124C7.33335 8.4279 9.07502 9.34457 11.0917 9.5279C11 9.2529 11 9.06957 11 8.88624C11 7.51124 12.1 6.5029 13.3834 6.5029C14.1167 6.5029 14.6667 6.7779 15.125 7.23624C15.675 7.14457 16.9583 6.96124 16.9583 6.96124C16.5917 7.51124 16.3167 8.51957 15.8583 8.88624Z" fill="#7C7C7D"/>
</svg>
