<svg width="22" height="23" viewBox="0 0 22 23" fill="none" xmlns="http://www.w3.org/2000/svg">
<path fill-rule="evenodd" clip-rule="evenodd" d="M11 0.269531C4.95 0.269531 0 5.21953 0 11.2695C0 17.3195 4.95 22.2695 11 22.2695C17.05 22.2695 22 17.3195 22 11.2695C22 5.21953 17.05 0.269531 11 0.269531ZM18.4937 11.8195C18.4937 12.9883 18.3562 14.157 18.3562 14.157C18.3562 14.157 18.2187 15.1195 17.7375 15.6008C17.2918 16.0465 16.7558 16.131 16.4222 16.1836L16.4222 16.1836C16.3441 16.1959 16.2772 16.2065 16.225 16.2195C14.0937 16.357 11 16.357 11 16.357C11 16.357 7.08125 16.357 5.9125 16.2195C5.8515 16.2073 5.77751 16.1973 5.69398 16.186C5.30684 16.1335 4.7149 16.0532 4.2625 15.6008C3.78125 15.1883 3.64375 14.157 3.64375 14.157C3.64375 14.157 3.50625 12.9883 3.50625 11.8195V10.7195C3.50625 9.55078 3.64375 8.38203 3.64375 8.38203C3.64375 8.38203 3.78125 7.41953 4.2625 6.93828C4.72261 6.47817 5.23083 6.40297 5.58592 6.35043L5.58592 6.35043C5.65529 6.34017 5.71882 6.33077 5.775 6.31953C7.8375 6.18203 11 6.18203 11 6.18203C11 6.18203 14.1625 6.18203 16.225 6.31953C16.5 6.31953 17.1875 6.38828 17.7375 6.93828C18.2187 7.35078 18.3562 8.38203 18.3562 8.38203C18.3562 8.38203 18.4937 9.55078 18.4937 10.7195V11.8195ZM13.475 11.132L9.41875 13.1258V9.06953L13.475 11.132Z" fill="#7C7C7D"/>
</svg>
